<svg width="338" height="329" viewBox="0 0 338 329" fill="none" xmlns="http://www.w3.org/2000/svg">
<g clip-path="url(#clip0)">
<path d="M78.8667 115.15V274.167C78.8667 277.195 76.3445 279.65 73.2333 279.65H28.1667C16.1281 279.637 6.20514 288.837 5.6333 300.541L5.63332 131.6C5.62583 125.781 7.99747 120.198 12.2249 116.083C16.4524 111.968 22.1882 109.659 28.1667 109.667H73.2333C76.3445 109.667 78.8667 112.122 78.8667 115.15Z" fill="#FFE0B2"/>
<path d="M301.609 41.454C289.554 15.5489 260.547 1.35903 231.998 7.40079C203.448 13.4425 183.113 38.0743 183.196 66.5128C183.39 89.4901 190.222 111.951 202.913 131.326C202.956 131.424 203.013 131.516 203.082 131.6C203.532 132.313 203.983 132.971 204.49 133.684C210.187 142.222 216.735 150.193 224.038 157.481C230.459 164.133 237.535 170.157 245.163 175.467C252.766 170.189 259.822 164.202 266.231 157.591C273.55 150.262 280.116 142.255 285.835 133.684C286.286 132.971 286.793 132.313 287.187 131.6C287.256 131.516 287.313 131.424 287.356 131.326C300.066 111.956 306.918 89.4953 307.129 66.5128C307.146 57.8723 305.264 49.3282 301.609 41.454ZM244.768 104.183C228.784 104.339 214.285 95.0864 208.057 80.7566C201.829 66.4267 205.105 49.8548 216.351 38.7975C227.597 27.7403 244.588 24.3854 259.372 30.3032C274.156 36.221 283.807 50.2406 283.807 65.8C283.866 75.9308 279.784 85.6686 272.462 92.8682C265.139 100.068 255.176 104.138 244.768 104.183Z" fill="#F44335"/>
<path d="M301.609 41.454C290.612 16.7966 264.058 2.3181 236.713 6.07002C267.468 10.5375 290.23 36.2452 290.229 66.5128C290.018 89.4952 283.166 111.956 270.456 131.326C270.413 131.424 270.356 131.516 270.287 131.6C269.893 132.313 269.386 132.971 268.935 133.684C263.216 142.255 256.65 150.262 249.331 157.591C245.337 161.64 241.129 165.483 236.724 169.106C241.794 173.268 245.174 175.489 245.174 175.489C252.777 170.211 259.833 164.224 266.243 157.613C273.561 150.284 280.127 142.277 285.847 133.706C286.297 132.993 286.804 132.335 287.199 131.622C287.267 131.538 287.324 131.446 287.368 131.348C300.077 111.978 306.929 89.5172 307.141 66.5347C307.157 57.886 305.271 49.3341 301.609 41.454Z" fill="#C81E1E"/>
<path d="M244.768 104.183C266.329 104.183 283.807 86.9985 283.807 65.8C283.807 44.6014 266.329 27.4166 244.768 27.4166C223.208 27.4166 205.729 44.6014 205.729 65.8C205.729 86.9985 223.208 104.183 244.768 104.183Z" fill="#FFEB3A"/>
<path d="M244.768 27.4166C241.925 27.4232 239.092 27.734 236.318 28.3433C254.233 32.3727 266.922 47.9026 266.922 65.8C266.922 83.6973 254.233 99.2272 236.318 103.257C239.092 103.866 241.925 104.177 244.768 104.183C266.547 104.183 284.202 86.9985 284.202 65.8C284.202 44.6014 266.547 27.4166 244.768 27.4166Z" fill="#FDD834"/>
<path d="M281.667 175.467C281.667 187.585 265.274 197.4 245.05 197.4C224.826 197.4 208.433 187.585 208.433 175.467C208.433 168.009 214.63 161.484 224.038 157.481C230.459 164.133 237.535 170.157 245.163 175.467C252.766 170.189 259.822 164.202 266.231 157.591C275.583 161.539 281.667 168.064 281.667 175.467Z" fill="#A0522D"/>
<path d="M266.231 157.591C263.832 160.015 261.556 162.148 259.404 164.094C262.681 167.035 264.613 171.13 264.767 175.467C264.767 185.841 252.74 194.505 236.6 196.791C239.398 197.192 242.222 197.395 245.05 197.4C265.274 197.4 281.667 187.585 281.667 175.467C281.667 168.064 275.583 161.539 266.231 157.591Z" fill="#783E22"/>
<path d="M332.367 137.083V318.033C332.367 321.062 329.845 323.517 326.733 323.517H292.933L270.4 296.1L247.867 323.517H29.4624C16.7288 323.691 6.1659 313.968 5.63336 301.583V300.541C6.20518 288.837 16.1282 279.637 28.1667 279.65H73.2334C76.3446 279.65 78.8667 277.195 78.8667 274.167V131.6H152.1L169 153.533L185.9 131.6H203.082C203.532 132.313 203.983 132.971 204.49 133.684C210.187 142.222 216.735 150.193 224.038 157.481C214.63 161.484 208.433 168.009 208.433 175.467C208.433 187.585 224.826 197.4 245.05 197.4C265.274 197.4 281.667 187.585 281.667 175.467C281.667 168.064 275.583 161.539 266.231 157.591C273.55 150.262 280.116 142.255 285.835 133.684C286.286 132.971 286.793 132.313 287.187 131.6H326.733C329.845 131.6 332.367 134.055 332.367 137.083Z" fill="#DFC49C"/>
<path d="M142.704 155.973C141.875 154.763 140.585 153.923 139.12 153.639C137.655 153.354 136.133 153.647 134.89 154.455L125.314 160.651L115.737 154.455C113.148 152.774 109.65 153.454 107.923 155.973C106.197 158.493 106.895 161.898 109.484 163.579L115.117 167.242L109.484 170.905C106.895 172.585 106.197 175.99 107.923 178.51C109.65 181.029 113.148 181.71 115.737 180.029L125.314 173.833L134.89 180.029C136.565 181.116 138.708 181.251 140.512 180.383C142.317 179.515 143.509 177.776 143.639 175.821C143.769 173.866 142.818 171.992 141.143 170.905L135.51 167.242L141.143 163.579C142.386 162.772 143.249 161.517 143.542 160.091C143.835 158.664 143.533 157.183 142.704 155.973Z" fill="#F44335"/>
<path d="M218.647 260.014C216.839 257.552 213.325 256.981 210.794 258.737L194.35 270.169L177.906 258.737C175.374 256.977 171.855 257.549 170.048 260.014C168.24 262.479 168.828 265.904 171.36 267.663L184.655 276.908L171.36 286.153C168.828 287.913 168.24 291.337 170.048 293.802C171.855 296.268 175.374 296.84 177.906 295.08L194.35 283.647L210.794 295.08C213.326 296.84 216.845 296.268 218.652 293.802C220.46 291.337 219.872 287.913 217.34 286.153L204.045 276.908L217.34 267.663C219.871 265.902 220.456 262.478 218.647 260.014Z" fill="#F44335"/>
<path d="M332.367 230.3C329.988 230.324 327.615 230.062 325.302 229.521C323.444 229.071 321.651 228.399 319.962 227.52C318.336 226.657 316.79 225.657 315.343 224.532C313.762 223.297 311.622 222.984 309.738 223.712C307.854 224.441 306.518 226.098 306.238 228.051C305.958 230.005 306.778 231.955 308.386 233.157C310.349 234.679 312.447 236.03 314.655 237.193C317.162 238.5 319.827 239.498 322.587 240.165C325.788 240.92 329.073 241.29 332.367 241.267C335.478 241.267 338 238.812 338 235.783C338 232.755 335.478 230.3 332.367 230.3Z" fill="#91562D"/>
<path d="M299.361 212.441C296.853 211.133 294.186 210.136 291.424 209.474C288.231 208.715 284.953 208.343 281.667 208.367C278.555 208.367 276.033 210.822 276.033 213.85C276.033 216.878 278.555 219.333 281.667 219.333C284.043 219.309 286.414 219.571 288.725 220.112C290.585 220.563 292.381 221.235 294.071 222.113C295.85 223.072 298.021 223.024 299.753 221.987C301.485 220.95 302.508 219.085 302.43 217.107C302.352 215.13 301.186 213.346 299.378 212.441H299.361Z" fill="#91562D"/>
<path d="M257.663 216.477C255.889 217.831 254.215 219.273 252.548 220.715C251.044 222.015 249.551 223.314 247.962 224.553C246.515 225.679 244.967 226.677 243.337 227.536C240.59 228.96 239.549 232.281 241.011 234.955C242.473 237.629 245.886 238.643 248.633 237.22C250.845 236.055 252.946 234.703 254.914 233.179C256.688 231.824 258.362 230.382 260.029 228.94C261.533 227.641 263.026 226.341 264.62 225.102C266.228 223.9 267.048 221.95 266.768 219.996C266.488 218.043 265.152 216.386 263.268 215.657C261.384 214.929 259.244 215.242 257.663 216.477Z" fill="#91562D"/>
<path d="M223.874 229.521C222.016 229.071 220.222 228.399 218.534 227.52C216.908 226.659 215.364 225.659 213.92 224.532C212.339 223.297 210.199 222.984 208.315 223.712C206.432 224.441 205.095 226.098 204.815 228.051C204.536 230.005 205.356 231.955 206.963 233.157C208.924 234.682 211.023 236.033 213.233 237.193C215.737 238.501 218.4 239.498 221.159 240.159C221.604 240.27 222.062 240.325 222.522 240.324C225.363 240.315 227.753 238.248 228.097 235.503C228.44 232.758 226.63 230.194 223.874 229.521Z" fill="#91562D"/>
<path d="M180.267 219.333C182.642 219.309 185.011 219.571 187.32 220.112C189.178 220.561 190.972 221.233 192.66 222.113C194.439 223.072 196.61 223.024 198.342 221.987C200.073 220.95 201.096 219.085 201.019 217.107C200.941 215.13 199.775 213.346 197.967 212.441C195.461 211.131 192.796 210.134 190.035 209.474C186.837 208.719 183.557 208.348 180.267 208.367C177.155 208.367 174.633 210.822 174.633 213.85C174.633 216.878 177.155 219.333 180.267 219.333Z" fill="#91562D"/>
<path d="M156.274 216.477C154.5 217.831 152.827 219.273 151.159 220.715C149.655 222.015 148.162 223.314 146.574 224.553C144.224 226.449 143.853 229.822 145.737 232.159C147.621 234.496 151.074 234.949 153.525 233.179C155.3 231.824 156.973 230.382 158.64 228.94C160.144 227.641 161.637 226.341 163.231 225.102C164.839 223.9 165.659 221.95 165.379 219.996C165.099 218.043 163.763 216.386 161.879 215.657C159.995 214.929 157.855 215.242 156.274 216.477Z" fill="#91562D"/>
<path d="M129.567 230.3C127.19 230.324 124.819 230.063 122.508 229.521C120.652 229.072 118.86 228.4 117.173 227.52C115.395 226.561 113.223 226.609 111.492 227.647C109.76 228.684 108.737 230.549 108.815 232.526C108.892 234.504 110.059 236.287 111.867 237.193C114.37 238.502 117.033 239.498 119.793 240.159C122.991 240.92 126.274 241.292 129.567 241.267C132.678 241.267 135.2 238.812 135.2 235.783C135.2 232.755 132.678 230.3 129.567 230.3Z" fill="#91562D"/>
<path d="M96.5666 212.441C94.0621 211.134 91.3993 210.138 88.6405 209.474C85.4411 208.719 82.1588 208.347 78.8667 208.367C75.7555 208.367 73.2333 210.822 73.2333 213.85C73.2333 216.879 75.7555 219.333 78.8667 219.333C81.2416 219.309 83.6106 219.571 85.9196 220.112C87.7781 220.561 89.572 221.234 91.26 222.114C92.8882 222.977 94.4357 223.977 95.885 225.102C97.4623 226.375 99.6252 226.714 101.533 225.987C103.441 225.26 104.793 223.583 105.064 221.606C105.335 219.629 104.482 217.665 102.837 216.477C100.873 214.954 98.7746 213.604 96.5666 212.441Z" fill="#91562D"/>
<path d="M244.757 109.667C263.021 109.827 279.578 99.2409 286.681 82.8624C293.785 66.4839 290.03 47.5517 277.173 34.9239C264.317 22.2961 244.902 18.4701 228.011 25.2361C211.121 32.002 200.097 48.0218 200.096 65.8C200.015 89.9056 219.992 109.528 244.757 109.667ZM244.757 32.9C258.464 32.7399 270.912 40.6534 276.272 52.9337C281.632 65.2141 278.841 79.4292 269.207 88.9206C259.573 98.412 245.004 101.3 232.323 96.2316C219.643 91.1633 211.364 79.1425 211.363 65.8C211.272 47.7474 226.211 33.0298 244.757 32.9Z" fill="black"/>
<path d="M7.74021 319.925C12.7995 325.013 19.5823 328.144 26.8316 328.737C27.2631 328.88 27.7119 328.969 28.1667 329H247.867C249.578 329.001 251.197 328.244 252.266 326.944L270.4 304.873L288.534 326.938C289.602 328.241 291.221 328.999 292.933 329H326.733C332.956 329 338 324.09 338 318.033V137.083C338 131.027 332.956 126.117 326.733 126.117H296.961C307.236 107.833 312.658 87.3418 312.735 66.5019C312.735 42.9938 299.85 21.2714 278.935 9.51737C258.019 -2.23667 232.25 -2.23667 211.335 9.51737C190.419 21.2714 177.535 42.9938 177.535 66.5019C177.621 87.3447 183.054 107.837 193.342 126.117H185.9C184.127 126.117 182.457 126.929 181.393 128.31L169 144.393L156.607 128.31C155.543 126.929 153.873 126.117 152.1 126.117H84.5V115.15C84.5 109.093 79.4558 104.183 73.2334 104.183H28.1667C20.6941 104.176 13.5255 107.062 8.24158 112.205C2.95768 117.349 -0.00746964 124.326 1.41319e-05 131.6V301.583C0.031981 301.826 0.080917 302.066 0.146481 302.302C0.337806 308.891 3.04525 315.174 7.74021 319.925ZM193.826 43.6692C204.778 20.0897 231.174 7.17222 257.15 12.6809C283.126 18.1897 301.609 40.6249 301.49 66.5019C301.308 88.5267 294.722 110.051 282.495 128.584C282.174 129.132 281.824 129.637 281.475 130.147L281.103 130.695C271.341 145.189 259.197 158.021 245.157 168.678C231.102 158.009 218.946 145.162 209.177 130.651L208.833 130.158C208.484 129.648 208.135 129.143 207.707 128.436C195.536 109.942 188.988 88.4749 188.818 66.5128C188.786 58.6369 190.494 50.8464 193.826 43.6692ZM222.877 164.209C228.784 170.006 235.192 175.297 242.031 180.023C243.93 181.265 246.412 181.265 248.312 180.023C255.112 175.321 261.481 170.054 267.347 164.281C272.064 166.26 275.364 170.509 276.033 175.467C276.033 183.247 263.308 191.917 245.05 191.917C226.792 191.917 214.067 183.247 214.067 175.467C214.773 170.47 218.116 166.199 222.877 164.209ZM164.493 156.823C165.557 158.204 167.227 159.017 169 159.017C170.773 159.017 172.443 158.204 173.507 156.823L188.717 137.083H200.057C204.554 143.776 209.553 150.135 215.013 156.11C207.853 160.149 203.262 167.424 202.8 175.467C202.8 190.82 221.356 202.883 245.05 202.883C268.744 202.883 287.3 190.82 287.3 175.467C286.867 167.462 282.317 160.208 275.2 156.176C280.683 150.173 285.713 143.792 290.252 137.083H326.733V318.033H295.637L274.794 292.673C273.686 291.435 272.081 290.725 270.394 290.725C268.708 290.725 267.103 291.435 265.995 292.673L245.163 318.033H118.3V301.583C118.3 298.555 115.778 296.1 112.667 296.1C109.555 296.1 107.033 298.555 107.033 301.583V318.033H29.4398C24.3283 318.008 19.4474 315.959 15.9198 312.358C12.7936 309.295 11.1092 305.109 11.2667 300.794C11.6801 292.01 19.1329 285.104 28.1667 285.133H73.2334C79.4558 285.133 84.5 280.223 84.5 274.167V137.083H149.283L164.493 156.823ZM16.179 119.986C19.3608 116.895 23.671 115.156 28.1667 115.15H33.8V131.6C33.8 134.628 36.3221 137.083 39.4334 137.083C42.5446 137.083 45.0667 134.628 45.0667 131.6V115.15H73.2334V274.167H56.3334V257.717C56.3334 254.688 53.8112 252.233 50.7 252.233C47.5888 252.233 45.0667 254.688 45.0667 257.717V274.167H28.1667C22.0539 274.199 16.1193 276.174 11.2667 279.793V131.6C11.2678 127.25 13.0332 123.076 16.179 119.986Z" fill="black"/>
</g>
<defs>
<clipPath id="clip0">
<rect width="338" height="329" fill="white"/>
</clipPath>
</defs>
</svg>
